<svg xmlns="http://www.w3.org/2000/svg" viewBox="0 0 64 64" fill="none" aria-hidden="true">
  <title>Weather</title>
  <!-- Sun -->
  <circle cx="44" cy="22" r="10" fill="#fbbf24"/>
  <line x1="44" y1="8" x2="44" y2="12" stroke="#fbbf24" stroke-width="2"/>
  <line x1="44" y1="32" x2="44" y2="36" stroke="#fbbf24" stroke-width="2"/>
  <line x1="30" y1="22" x2="34" y2="22" stroke="#fbbf24" stroke-width="2"/>
  <line x1="54" y1="22" x2="58" y2="22" stroke="#fbbf24" stroke-width="2"/>
  <line x1="35" y1="13" x2="37.8" y2="15.8" stroke="#fbbf24" stroke-width="2"/>
  <line x1="52.2" y1="28.2" x2="55" y2="31" stroke="#fbbf24" stroke-width="2"/>
  <line x1="35" y1="31" x2="37.8" y2="28.2" stroke="#fbbf24" stroke-width="2"/>
  <line x1="52.2" y1="15.8" x2="55" y2="13" stroke="#fbbf24" stroke-width="2"/>
  <!-- Cloud -->
  <path d="M48 40a10 10 0 0 1-9.5-6.8 8 8 0 0 1-15 2 8 8 0 0 1 2 15.8h22.5a7.5 7.5 0 0 0 0-15 7.4 7.4 0 0 0-1 .1A10 10 0 0 1 48 40z" fill="#94a3b8"/>
  <path d="M18 44a8 8 0 0 1-7.2-4.6 6 6 0 0 1 1.2-11.8 6 6 0 0 1 11.2 2.4A8 8 0 0 1 18 44z" fill="#cbd5e1"/>
</svg>
